PathFileType	4	(x/y/z)	TRC_MarkerData\Passive\Passive_Pref0009.trc
DataRate	CameraRate	NumFrames	NumMarkers	Units	OrigDataRate	OrigDataStartFrame	OrigNumFrames
240	240	6	50	mm	240	99	262
Frame#	Time	R_AC			L_AC			HEAD			STERN			L_IC			R_IC			L_ASIS			R_ASIS			L_GT			R_GT			L_PSIS			R_PSIS			SACRAL			L_LAT_KNEE			L_MED_KNEE			R_LAT_KNEE			R_MED_KNEE			L_LAT_ANK			L_MED_ANK			R_LAT_ANK			R_MED_ANK			L_THIGH_PROX_POST			L_THIGH_PROX_ANT			L_THIGH_DIST_ANT			L_THIGH_DIST_POST			R_THIGH_PROX_POST			R_THIGH_PROX_ANT			R_THIGH_DIST_ANT			R_THIGH_DIST_POST			L_SHANK_PROX_POST			L_SHANK_PROX_ANT			L_SHANK_DIST_ANT			L_SHANK_DIST_POST			R_SHANK_PROX_POST			R_SHANK_PROX_ANT			R_SHANK_DIST_ANT			R_SHANK_DIST_POST			L_HEEL_LAT			L_HEEL_SUP			L_HEEL_MED			R_HEEL_LAT			R_HEEL_SUP			R_HEEL_MED			L_1ST_MET			L_5TH_MET			L_TOE			R_1ST_MET			R_5TH_MET			R_TOE			C7			
		X1	Y1	Z1	X2	Y2	Z2	X3	Y3	Z3	X4	Y4	Z4	X5	Y5	Z5	X6	Y6	Z6	X7	Y7	Z7	X8	Y8	Z8	X9	Y9	Z9	X10	Y10	Z10	X11	Y11	Z11	X12	Y12	Z12	X13	Y13	Z13	X14	Y14	Z14	X15	Y15	Z15	X16	Y16	Z16	X17	Y17	Z17	X18	Y18	Z18	X19	Y19	Z19	X20	Y20	Z20	X21	Y21	Z21	X22	Y22	Z22	X23	Y23	Z23	X24	Y24	Z24	X25	Y25	Z25	X26	Y26	Z26	X27	Y27	Z27	X28	Y28	Z28	X29	Y29	Z29	X30	Y30	Z30	X31	Y31	Z31	X32	Y32	Z32	X33	Y33	Z33	X34	Y34	Z34	X35	Y35	Z35	X36	Y36	Z36	X37	Y37	Z37	X38	Y38	Z38	X39	Y39	Z39	X40	Y40	Z40	X41	Y41	Z41	X42	Y42	Z42	X43	Y43	Z43	X44	Y44	Z44	X45	Y45	Z45	X46	Y46	Z46	X47	Y47	Z47	X48	Y48	Z48	X49	Y49	Z49	X50	Y50	Z50	

99	0.4099	-284.1	1518.4	396.46	-244.94	1529.3	45.841	-261.24	1808.4	220.04	-224.81	1467.3	224.78	-314.94	1091.8	70.141	-308.28	1123.3	394.21	-257.85	1011.8	97.31	-231.41	1033.5	369.66	-351.79	927.54	50.367	-296.16	964.37	434.21	-431.76	1082	189.26	-426.56	1093.6	280.54	-444.37	1056.7	238.15	-368.45	525.09	109.14	-399.08	532.17	242.68	-163.56	568.08	378.57	-164.3	579.13	246.89	-499.86	127.06	145.36	-498.14	128.88	216.51	-193.98	140.53	367.05	-175.7	160.05	278.37	-372.07	759.72	81.182	-309.15	752.88	93.529	-310.71	680.23	108.48	-375.85	685.36	95.249	-265.39	744.56	401.76	-203.31	773.19	411.27	-176.87	704.17	399.86	-237.1	675.76	387.88	-405.81	446.92	114.47	-361.39	447.52	140.45	-386.71	394.09	147.48	-444.44	398.08	137.81	-230.13	407.84	378.83	-162.48	408.68	388.26	-166.21	333.05	380.85	-235.22	334.7	368.68	-596.55	73.095	154.5	-599.73	102.1	185.76	-593.33	72.672	220.8	-250.7	61.527	336.39	-253.98	87.646	301.52	-232.36	63.717	272.03	-387.96	53.459	230.86	-422.57	38.823	125.85	-328.43	52.051	196.53	-33.845	103.14	304.98	-74.948	88.451	404.03	8.7174	116.45	362.07	-339.11	1584	211.94
100	0.41408	-278.66	1517.9	396.22	-238.89	1528.8	45.706	-255.45	1807.9	220.03	-219.08	1466.8	224.57	-309.58	1091.3	69.995	-302.25	1122.9	393.98	-252.6	1011.2	97.053	-225.22	1033.1	369.32	-347.07	927.13	50.36	-290.05	963.99	434.03	-426.16	1081.5	189.31	-420.56	1093.3	280.58	-438.6	1056.3	238.28	-366.31	524.89	109.23	-396.9	532.05	242.79	-158.07	567.44	377.85	-159.92	578.34	246.15	-499.39	127.39	145.41	-497.71	129.18	216.51	-176.32	138.72	365.03	-159.1	159.2	276.33	-368.24	759.63	81.284	-305.43	752.34	93.498	-307.44	679.71	108.5	-372.55	685.26	95.346	-260.04	744.04	401.44	-197.75	772.47	410.74	-171.62	703.42	399.25	-231.97	675.18	387.51	-404	446.88	114.56	-359.57	447.28	140.54	-385.13	393.95	147.59	-442.83	398.19	137.89	-220.36	405.09	378.1	-152.7	407.86	387.12	-154.24	332.18	379.47	-223.38	331.86	367.63	-596.33	73.764	154.49	-599.37	102.76	185.78	-593.11	73.336	220.8	-230.68	58.07	334.21	-235.06	84.207	299.45	-212.81	61.155	269.78	-387.83	53.478	230.91	-422.48	38.851	125.83	-328.32	51.927	196.54	-15.483	106.72	302.01	-55.549	90.293	401.14	26.957	121.13	358.93	-333.31	1583.5	211.64
101	0.41826	-273.19	1517.3	396	-232.83	1528.3	45.58	-249.67	1807.4	220.03	-213.34	1466.2	224.36	-304.21	1090.8	69.858	-296.15	1122.4	393.75	-247.34	1010.6	96.788	-219	1032.7	368.96	-342.36	926.69	50.36	-283.89	963.53	433.85	-420.55	1081	189.38	-414.52	1092.8	280.64	-432.8	1055.9	238.42	-364.14	524.66	109.31	-394.7	531.92	242.9	-152.66	566.7	377.18	-155.71	577.41	245.44	-498.92	127.72	145.45	-497.27	129.49	216.51	-158.79	137.13	362.94	-142.67	158.56	274.24	-364.41	759.5	81.399	-301.71	751.76	93.454	-304.17	679.15	108.52	-369.23	685.12	95.45	-254.71	743.43	401.17	-192.21	771.64	410.23	-166.41	702.55	398.66	-226.89	674.5	387.17	-402.17	446.81	114.66	-357.72	447.02	140.64	-383.53	393.79	147.7	-441.2	398.29	137.98	-210.64	402.35	377.38	-143.02	407.04	386	-142.39	331.36	378.09	-211.6	329.1	366.56	-596.13	74.434	154.47	-599	103.42	185.81	-592.89	73.993	220.81	-210.76	54.917	331.92	-216.26	81.063	297.31	-193.4	58.925	267.44	-387.71	53.499	230.95	-422.39	38.875	125.81	-328.22	51.807	196.55	2.572	110.52	298.96	-36.385	92.333	398.18	44.878	125.96	355.74	-327.51	1583	211.36
102	0.42245	-267.7	1516.6	395.77	-226.75	1527.7	45.465	-243.87	1806.9	220.03	-207.6	1465.6	224.16	-298.84	1090.1	69.728	-289.98	1121.9	393.53	-242.07	1009.8	96.513	-212.73	1032.2	368.6	-337.67	926.2	50.367	-277.67	962.98	433.67	-414.93	1080.5	189.47	-408.44	1092.4	280.72	-426.97	1055.5	238.58	-361.94	524.41	109.4	-392.47	531.76	243.01	-147.33	565.87	376.55	-151.65	576.35	244.76	-498.45	128.04	145.5	-496.83	129.79	216.51	-141.41	135.73	360.8	-126.43	158.12	272.11	-360.58	759.33	81.524	-297.99	751.15	93.396	-300.89	678.56	108.53	-365.91	684.96	95.56	-249.39	742.73	400.94	-186.68	770.69	409.76	-161.23	701.56	398.11	-221.85	673.72	386.86	-400.32	446.72	114.76	-355.86	446.73	140.73	-381.91	393.61	147.81	-439.55	398.36	138.08	-200.98	399.64	376.66	-133.46	406.23	384.89	-130.68	330.61	376.72	-199.92	326.42	365.48	-595.95	75.106	154.45	-598.63	104.08	185.85	-592.67	74.644	220.82	-191.01	52.068	329.54	-197.62	78.214	295.08	-174.19	57.025	265	-387.59	53.521	231	-422.31	38.897	125.79	-328.12	51.692	196.56	20.29	114.5	295.87	-17.495	94.55	395.15	62.452	130.92	352.5	-321.69	1582.5	211.09
103	0.42663	-262.19	1515.9	395.55	-220.65	1527.1	45.363	-238.08	1806.2	220.04	-201.84	1465	223.96	-293.46	1089.5	69.603	-283.74	1121.3	393.32	-236.8	1009.1	96.228	-206.41	1031.6	368.21	-332.99	925.67	50.381	-271.38	962.34	433.47	-409.29	1079.9	189.58	-402.34	1091.8	280.82	-421.11	1054.9	238.77	-359.69	524.13	109.49	-390.2	531.57	243.13	-142.06	564.94	375.96	-147.71	575.16	244.11	-497.98	128.36	145.54	-496.38	130.08	216.52	-124.23	134.53	358.59	-110.4	157.88	269.95	-356.75	759.12	81.658	-294.25	750.51	93.324	-297.6	677.93	108.53	-362.57	684.76	95.677	-244.05	741.93	400.75	-181.15	769.64	409.32	-156.07	700.46	397.58	-216.84	672.85	386.57	-398.44	446.6	114.85	-353.97	446.42	140.83	-380.27	393.41	147.91	-437.89	398.42	138.17	-191.4	396.98	375.94	-124.01	405.42	383.8	-119.11	329.92	375.35	-188.33	323.82	364.37	-595.81	75.783	154.43	-598.26	104.75	185.9	-592.44	75.292	220.84	-171.47	49.52	327.05	-179.19	75.661	292.78	-155.23	55.449	262.46	-387.49	53.544	231.03	-422.23	38.917	125.77	-328.03	51.582	196.57	37.64	118.66	292.72	1.0785	96.922	392.08	79.649	135.97	349.23	-315.86	1581.8	210.82
104	0.43081	-256.66	1515.1	395.34	-214.54	1526.4	45.275	-232.28	1805.5	220.06	-196.07	1464.3	223.76	-288.09	1088.7	69.483	-277.41	1120.6	393.1	-231.52	1008.2	95.931	-200.05	1030.9	367.81	-328.32	925.11	50.403	-265.03	961.62	433.27	-403.64	1079.2	189.71	-396.2	1091.2	280.94	-415.22	1054.3	238.98	-357.4	523.83	109.58	-387.9	531.36	243.25	-136.84	563.92	375.4	-143.89	573.86	243.48	-497.51	128.67	145.59	-495.93	130.37	216.53	-107.29	133.53	356.33	-94.615	157.82	267.76	-352.91	758.88	81.802	-290.5	749.83	93.236	-294.29	677.27	108.51	-359.23	684.52	95.8	-238.71	741.05	400.6	-175.61	768.49	408.91	-150.91	699.25	397.09	-211.84	671.9	386.31	-396.54	446.46	114.96	-352.05	446.08	140.92	-378.61	393.18	148.02	-436.19	398.46	138.27	-181.91	394.36	375.2	-114.7	404.63	382.73	-107.71	329.29	373.99	-176.87	321.32	363.23	-595.69	76.469	154.41	-597.88	105.43	185.97	-592.22	75.938	220.86	-152.2	47.265	324.47	-161	73.398	290.4	-136.54	54.187	259.83	-387.39	53.568	231.07	-422.15	38.934	125.75	-327.93	51.476	196.58	54.592	122.96	289.56	19.295	99.421	388.96	96.44	141.08	345.96	-310.03	1581.1	210.57
